<svg width="28" height="28" viewBox="0 0 28 28" fill="none" xmlns="http://www.w3.org/2000/svg">
<path d="M12.5255 1.77637C6.18788 1.77637 1.27637 6.40818 1.27637 12.6643C1.27637 15.9366 2.62101 18.7643 4.80974 20.7177C5.18765 21.0576 5.10981 21.2545 5.17407 23.3532C5.17914 23.5002 5.22009 23.6437 5.29335 23.7712C5.36662 23.8988 5.46999 24.0064 5.59443 24.0849C5.71886 24.1633 5.8606 24.2101 6.00727 24.2211C6.15395 24.2322 6.3011 24.2072 6.4359 24.1484C8.83055 23.0938 8.86133 23.0105 9.2673 23.121C16.2051 25.0305 23.7248 20.5905 23.7248 12.6643C23.7248 6.40818 18.8636 1.77637 12.5255 1.77637ZM19.28 10.1552L15.976 15.3858C15.8513 15.5824 15.6872 15.7512 15.4942 15.8816C15.3012 16.0119 15.0833 16.1009 14.8542 16.1431C14.6251 16.1853 14.3898 16.1798 14.163 16.1268C13.9362 16.0738 13.7228 15.9745 13.5361 15.8352L10.9075 13.8678C10.79 13.7796 10.647 13.732 10.5002 13.732C10.3533 13.732 10.2103 13.7796 10.0928 13.8678L6.54588 16.558C6.07247 16.9169 5.45242 16.3498 5.77149 15.8488L9.0754 10.6182C9.20012 10.4214 9.36414 10.2526 9.55718 10.1222C9.75023 9.99185 9.96812 9.90277 10.1972 9.86058C10.4263 9.81838 10.6616 9.82397 10.8884 9.877C11.1153 9.93003 11.3287 10.0294 11.5153 10.1687L14.1431 12.1357C14.2606 12.2238 14.4035 12.2715 14.5504 12.2715C14.6973 12.2715 14.8402 12.2238 14.9577 12.1357L18.5065 9.44822C18.979 9.08706 19.599 9.6537 19.28 10.1552Z" fill="#43A5FF"/>
</svg>
