<svg width="28" height="28" viewBox="0 0 28 28" fill="none" xmlns="http://www.w3.org/2000/svg">
<path d="M24.164 23.5414C24.2847 23.8392 24.2124 24.1771 23.9868 24.4106C23.834 24.5638 23.6245 24.644 23.4155 24.644C23.3188 24.644 23.2143 24.6283 23.1176 24.5874L19.9952 23.3402C18.5947 24.1937 17.0013 24.644 15.3678 24.644C11.9314 24.644 8.88133 22.6643 7.42465 19.703C7.91584 19.7753 8.42275 19.8154 8.92966 19.8154C14.6998 19.8154 19.3916 15.1235 19.3916 9.35341C19.3916 8.8465 19.3515 8.33959 19.2788 7.8484C22.2405 9.30547 24.2202 12.3556 24.2202 15.7915C24.2202 17.4254 23.7695 19.0185 22.9164 20.419L24.164 23.5414ZM17.7821 9.35341C17.7821 14.2347 13.8109 18.2058 8.92966 18.2058C7.28476 18.2058 5.69448 17.7555 4.30304 16.8997L1.18103 18.1485C1.08397 18.187 0.98259 18.2058 0.881994 18.2058C0.67255 18.2058 0.466643 18.1241 0.312999 17.9701C0.0854793 17.7422 0.0151409 17.4011 0.134598 17.1024L1.38379 13.98C0.527551 12.5874 0.0772274 10.9975 0.0772274 9.35341C0.0772274 4.47215 4.0484 0.500977 8.92966 0.500977C13.8109 0.500977 17.7821 4.47215 17.7821 9.35341ZM6.51536 9.35341C6.51536 8.90859 6.15502 8.54864 5.71059 8.54864C5.26616 8.54864 4.90583 8.90859 4.90583 9.35341C4.90583 9.79823 5.26616 10.1582 5.71059 10.1582C6.15502 10.1582 6.51536 9.79823 6.51536 9.35341ZM9.73443 9.35341C9.73443 8.90859 9.37409 8.54864 8.92966 8.54864C8.48523 8.54864 8.12489 8.90859 8.12489 9.35341C8.12489 9.79823 8.48523 10.1582 8.92966 10.1582C9.37409 10.1582 9.73443 9.79823 9.73443 9.35341ZM12.9535 9.35341C12.9535 8.90859 12.5932 8.54864 12.1487 8.54864C11.7043 8.54864 11.344 8.90859 11.344 9.35341C11.344 9.79823 11.7043 10.1582 12.1487 10.1582C12.5932 10.1582 12.9535 9.79823 12.9535 9.35341Z" fill="#43A5FF"/>
</svg>
