<svg width="28" height="28" viewBox="0 0 28 28" fill="none" xmlns="http://www.w3.org/2000/svg">
<path d="M18.327 14.5414C18.2824 14.52 16.6134 13.6981 16.3168 13.5914C16.1957 13.5479 16.066 13.5055 15.928 13.5055C15.7027 13.5055 15.5134 13.6178 15.3659 13.8384C15.1992 14.0862 14.6945 14.6762 14.5385 14.8524C14.5182 14.8757 14.4904 14.9035 14.4737 14.9035C14.4588 14.9035 14.2005 14.7971 14.1223 14.7631C12.3319 13.9854 10.9729 12.1152 10.7866 11.7998C10.76 11.7545 10.7588 11.7339 10.7586 11.7339C10.7652 11.7099 10.8254 11.6495 10.8564 11.6184C10.9473 11.5284 11.0458 11.4099 11.1411 11.2952C11.1862 11.2409 11.2314 11.1864 11.2758 11.1352C11.4141 10.9743 11.4756 10.8494 11.547 10.7048L11.5843 10.6296C11.7586 10.2835 11.6098 9.99137 11.5617 9.89704C11.5222 9.8181 10.8175 8.11728 10.7426 7.93859C10.5624 7.50741 10.3243 7.30664 9.99346 7.30664C9.96276 7.30664 9.99346 7.30664 9.86472 7.31207C9.70796 7.31868 8.85428 7.43107 8.47683 7.669C8.07656 7.92135 7.39941 8.72575 7.39941 10.1404C7.39941 11.4136 8.20738 12.6157 8.55428 13.0729C8.5629 13.0845 8.57874 13.1079 8.6017 13.1415C9.9302 15.0816 11.5864 16.5195 13.2652 17.1902C14.8816 17.8358 15.6469 17.9104 16.0821 17.9104H16.0821C16.265 17.9104 16.4113 17.8961 16.5405 17.8834L16.6224 17.8756C17.1807 17.8261 18.4078 17.1902 18.6869 16.4146C18.9068 15.8037 18.9647 15.1362 18.8184 14.894C18.7183 14.7292 18.5456 14.6464 18.327 14.5414Z" fill="#43A5FF"/>
<path d="M13.0365 1.38672C6.83619 1.38672 1.79185 6.39315 1.79185 12.5469C1.79185 14.5372 2.3245 16.4855 3.33353 18.1906L1.40222 23.8876C1.36624 23.9938 1.393 24.1113 1.47157 24.1913C1.52828 24.2492 1.60521 24.2804 1.68378 24.2804C1.71388 24.2804 1.74421 24.2758 1.77379 24.2664L7.71425 22.3787C9.33985 23.2473 11.1771 23.7057 13.0366 23.7057C19.2363 23.7058 24.2801 18.6999 24.2801 12.5469C24.2801 6.39315 19.2363 1.38672 13.0365 1.38672ZM13.0365 21.3811C11.2869 21.3811 9.5922 20.8758 8.13548 19.92C8.0865 19.8878 8.02963 19.8713 7.9724 19.8713C7.94215 19.8713 7.91182 19.8759 7.88231 19.8852L4.90651 20.8312L5.86715 17.997C5.89822 17.9053 5.88268 17.8042 5.82545 17.726C4.71615 16.2102 4.12976 14.4194 4.12976 12.5469C4.12976 7.67504 8.1253 3.71147 13.0364 3.71147C17.947 3.71147 21.9421 7.67504 21.9421 12.5469C21.9421 17.4181 17.9471 21.3811 13.0365 21.3811Z" fill="#43A5FF"/>
</svg>
