<svg width="14" height="14" viewBox="0 0 14 14" fill="none" xmlns="http://www.w3.org/2000/svg">
<path d="M3.03315 6.10852C4.09481 8.19498 5.80527 9.89806 7.89172 10.9671L9.5137 9.34511C9.71276 9.14605 10.0077 9.07969 10.2657 9.16817C11.0914 9.44095 11.9835 9.58841 12.8977 9.58841C13.3032 9.58841 13.635 9.92018 13.635 10.3257V12.8987C13.635 13.3042 13.3032 13.636 12.8977 13.636C5.97484 13.636 0.364258 8.02541 0.364258 1.1025C0.364258 0.697003 0.696027 0.365234 1.10152 0.365234H3.68195C4.08744 0.365234 4.41921 0.697003 4.41921 1.1025C4.41921 2.02408 4.56666 2.9088 4.83945 3.73453C4.92055 3.99257 4.86157 4.28011 4.65513 4.48654L3.03315 6.10852Z" fill="#43A5FF"/>
</svg>
